M48
; DRILL file {KiCad 5.1.10-88a1d61d58~88~ubuntu18.04.1} date Sat Jan 15 19:28:20 2022
; FORMAT={-:-/ absolute / metric / decimal}
; #@! TF.CreationDate,2022-01-15T19:28:20-03:00
; #@! TF.GenerationSoftware,Kicad,Pcbnew,5.1.10-88a1d61d58~88~ubuntu18.04.1
FMAT,2
METRIC
T1C0.800
T2C1.001
T3C1.016
T4C1.250
T5C3.000
%
G90
G05
T1
X9.032Y-39.868
X9.032Y-36.312
X19.192Y-39.868
X19.192Y-36.312
X52.72Y-41.9
X52.72Y-38.09
X52.72Y-31.486
X52.72Y-26.406
X53.99Y-18.024
X53.99Y-13.96
X62.88Y-41.9
X62.88Y-38.09
X62.88Y-31.486
X62.88Y-26.406
X64.15Y-18.024
X64.15Y-13.96
T3
X9.464Y-21.326
X9.464Y-18.786
X9.464Y-16.246
X9.464Y-13.706
X9.464Y-11.166
X9.464Y-8.626
X22.748Y-39.106
X22.748Y-36.566
X22.748Y-34.026
X22.748Y-31.486
X22.748Y-28.946
X22.748Y-26.406
X22.748Y-23.866
X22.748Y-21.326
X45.608Y-39.106
X45.608Y-36.566
X45.608Y-34.026
X45.608Y-31.486
X45.608Y-28.946
X45.608Y-26.406
X45.608Y-23.866
X45.608Y-21.326
X46.116Y-6.264
X48.656Y-6.264
X51.196Y-6.264
X56.784Y-47.31
X59.324Y-47.31
X81.346Y-34.534
X81.346Y-31.994
X81.346Y-29.454
X81.346Y-26.914
T4
X10.048Y-52.314
X10.048Y-48.504
X10.048Y-44.694
X70.754Y-45.71
X70.754Y-41.9
X70.754Y-38.09
X70.754Y-34.026
X70.754Y-30.216
X70.754Y-26.406
X70.754Y-21.58
X70.754Y-17.77
X70.754Y-13.96
T5
X5.0Y-5.0
X15.0Y-50.0
X35.0Y-35.0
X80.0Y-50.0
X80.0Y-5.0
T2
G00X3.185Y-30.707
M15
G01X3.185Y-28.709
M16
G05
G00X7.436Y-24.407
M15
G01X5.437Y-24.407
M16
G05
G00X9.187Y-30.958
M15
G01X9.187Y-28.458
M16
G05
T0
M30
